<svg width="131" height="48" viewBox="0 0 131 48" fill="none" xmlns="http://www.w3.org/2000/svg">
<path d="M108.2 30.9765C106.343 30.9765 105.352 30.3916 105.352 28.804V18.4845H110.304V12.0087H105.352V5.69995H98.2545V12.0087H88.3094V15.6017C86.9063 13.3038 84.3478 11.5909 80.51 11.5909C74.2789 11.5909 69.2856 16.6044 69.2856 24.6678C69.2856 32.7313 74.2376 37.8701 80.345 37.8701C84.1827 37.8701 86.7412 36.1572 88.1443 33.8593V35.3683H95.2421V18.4845H98.0894V28.6787C98.0894 36.2825 102.216 37.5777 107.044 37.5777H108.821V30.9765H108.2ZM81.9544 31.1019C78.9832 31.1019 76.4247 28.804 76.4247 24.626C76.4247 20.6152 78.9832 18.3174 81.9544 18.3174C84.9255 18.3174 87.484 20.6152 87.484 24.626C87.484 28.804 84.9255 31.1019 81.9544 31.1019Z" fill="#100F0F"/>
<path d="M110.883 30.9766H108.819V37.5777H110.883V30.9766Z" fill="#EB5447"/>
<path d="M95.2433 35.368H88.1455V37.457H95.2433V35.368Z" fill="#EB5447"/>
<path d="M55.7524 11.8408C54.0605 11.8408 52.3273 12.0497 50.8005 12.76C49.3974 13.3449 48.1181 14.264 46.9627 15.4339C45.9723 16.6037 44.9819 18.0242 44.4042 19.6118C43.8265 21.1994 43.5376 22.9124 43.5376 24.7925C43.5376 26.6725 43.8265 28.5108 44.4042 30.0984C44.9819 31.6861 45.8072 33.1066 46.9627 34.2764C48.1181 35.4462 49.3974 36.2818 50.9243 36.9921C52.4924 37.7023 54.0605 37.953 55.8762 37.9948C57.7744 38.0365 60.2504 37.8276 61.9423 37.201C64.5008 36.2818 65.6968 34.6101 65.6968 34.6101L59.5076 30.9758C58.7648 31.895 56.6603 32.2292 54.6382 31.895C51.7083 31.3936 50.6354 29.0957 50.5116 27.3828H67.8434C68.1735 18.8598 64.212 11.8408 55.7524 11.8408ZM50.5116 21.8679C51.3782 19.6954 53.1939 18.1495 55.6286 18.1495C58.5998 18.1495 60.1679 20.1549 60.5805 21.8679H50.5116Z" fill="#100F0F"/>
<path d="M66.7274 32.8149L65.6958 34.6114L59.5059 30.9766L60.5375 29.1801L66.7274 32.8149Z" fill="#EB5447"/>
<path d="M33.5494 25.0857C33.5494 20.7407 36.5206 18.6099 40.152 18.6099V11.7163C36.7269 11.7163 34.9525 13.1368 33.5494 15.3093V12.0088H26.4517V37.7031H33.5494V25.0857Z" fill="#100F0F"/>
<path d="M42.2166 11.7163H40.1523V18.6099H42.2166V11.7163Z" fill="#EB5447"/>
<path d="M16.7954 29.3889L22.9028 33.149C20.8807 36.1571 17.1255 37.9954 12.7925 37.9954C5.8598 37.9954 0 32.9819 0 24.7931C0 16.7715 5.81854 11.5908 12.7925 11.5908C17.9095 11.5908 21.7473 13.8887 23.8519 17.8995L16.7541 20.1974C16.1764 19.4871 14.7733 18.192 12.6275 18.192C9.7801 18.192 7.09779 20.3227 7.09779 24.626C7.09779 28.9293 9.7801 30.9347 12.6275 31.1018C14.1956 31.1854 15.9288 30.5587 16.7954 29.3889Z" fill="#100F0F"/>
<path d="M23.9757 31.3526L22.9028 33.1491L16.7954 29.3889L17.8683 27.5924L23.9757 31.3526Z" fill="#EB5447"/>
<path d="M130.375 7.89069C130.375 14.7411 125.178 17.7659 119.817 20.8236C122.095 19.3835 124.124 17.4352 125.36 14.9815C126.092 13.547 126.558 11.973 126.726 10.3636C126.886 8.8416 126.747 7.63657 126.646 7.05728C126.012 2.52134 118.978 2.5432 118.411 7.30048C118.242 8.70771 118.297 9.86436 118.987 10.7142C115.153 6.25201 120.678 -1.5856 126.451 1.1387C126.975 1.38189 127.461 1.70159 127.916 2.06228C129.4 3.39574 130.301 5.30029 130.375 7.89069Z" fill="url(#paint0_linear_3254_95186)"/>
<path d="M127.91 2.06023C127.459 1.70227 126.972 1.38257 126.451 1.13938C120.678 -1.58492 115.152 6.24915 118.988 10.7168C119.406 11.2035 119.88 11.6146 120.52 11.7661C122.929 12.4109 121.913 13.4465 121.004 15.6735C115.387 14.0586 113.842 9.42704 114.97 5.60428C116.654 -0.128498 123.662 -1.73794 127.91 2.06023Z" fill="url(#paint1_linear_3254_95186)"/>
<path d="M126.725 10.3661C126.557 11.9728 126.092 13.5495 125.359 14.984C124.146 17.3983 122.126 19.369 119.817 20.8261C119.429 21.0338 119.204 21.0639 119.039 20.8698C118.91 20.7196 118.886 20.5037 118.964 20.3206L121.001 15.6754C124.267 14.2367 127.149 10.8326 126.645 7.0564C126.746 7.62556 126.886 8.8441 126.725 10.3661Z" fill="url(#paint2_linear_3254_95186)"/>
<defs>
<linearGradient id="paint0_linear_3254_95186" x1="117.715" y1="6.47316" x2="125.78" y2="16.9986" gradientUnits="userSpaceOnUse">
<stop stop-color="#D44C40"/>
<stop offset="1" stop-color="#EB5447"/>
</linearGradient>
<linearGradient id="paint1_linear_3254_95186" x1="120.531" y1="15.3123" x2="120.75" y2="1.31177" gradientUnits="userSpaceOnUse">
<stop stop-color="#D44C40"/>
<stop offset="1" stop-color="#EB5447"/>
</linearGradient>
<linearGradient id="paint2_linear_3254_95186" x1="126.437" y1="11.3745" x2="122.295" y2="19.1814" gradientUnits="userSpaceOnUse">
<stop stop-color="#D44C40"/>
<stop offset="1" stop-color="#EB5447"/>
</linearGradient>
</defs>
</svg>
